<?xml version="1.0" encoding="UTF-8" standalone="no"?>
<!-- Created with Inkscape (http://www.inkscape.org/) -->

<svg
   xmlns:dc="http://purl.org/dc/elements/1.1/"
   xmlns:cc="http://creativecommons.org/ns#"
   xmlns:rdf="http://www.w3.org/1999/02/22-rdf-syntax-ns#"
   xmlns:svg="http://www.w3.org/2000/svg"
   xmlns="http://www.w3.org/2000/svg"
   xmlns:xlink="http://www.w3.org/1999/xlink"
   xmlns:sodipodi="http://sodipodi.sourceforge.net/DTD/sodipodi-0.dtd"
   xmlns:inkscape="http://www.inkscape.org/namespaces/inkscape"
   width="141.08534mm"
   height="87.072601mm"
   viewBox="0 0 499.9087 308.52496"
   id="svg2"
   version="1.1"
   inkscape:version="0.91 r13725"
   sodipodi:docname="iuc_draft.svg"
   inkscape:export-filename="/Users/bebatut/Documents/com/images/logos/iuc_draft.png"
   inkscape:export-xdpi="101.17474"
   inkscape:export-ydpi="101.17474">
  <defs
     id="defs4">
    <linearGradient
       inkscape:collect="always"
       id="linearGradient4345">
      <stop
         style="stop-color:#d0bd2a;stop-opacity:1;"
         offset="0"
         id="stop4347" />
      <stop
         style="stop-color:#d0bd2a;stop-opacity:0;"
         offset="1"
         id="stop4349" />
    </linearGradient>
    <linearGradient
       inkscape:collect="always"
       xlink:href="#linearGradient4345"
       id="linearGradient4351"
       x1="95.648811"
       y1="639.96741"
       x2="135.54984"
       y2="640.21997"
       gradientUnits="userSpaceOnUse" />
  </defs>
  <sodipodi:namedview
     id="base"
     pagecolor="#ffffff"
     bordercolor="#666666"
     borderopacity="1.0"
     inkscape:pageopacity="0.0"
     inkscape:pageshadow="2"
     inkscape:zoom="0.77234815"
     inkscape:cx="265.74804"
     inkscape:cy="154.26249"
     inkscape:document-units="px"
     inkscape:current-layer="layer1"
     showgrid="false"
     inkscape:window-width="1280"
     inkscape:window-height="751"
     inkscape:window-x="0"
     inkscape:window-y="1"
     inkscape:window-maximized="1"
     fit-margin-top="5"
     fit-margin-right="5"
     fit-margin-bottom="5"
     fit-margin-left="5">
    <inkscape:grid
       type="xygrid"
       id="grid4173"
       originx="320.26633"
       originy="-337.10972" />
  </sodipodi:namedview>
  <metadata
     id="metadata7">
    <rdf:RDF>
      <cc:Work
         rdf:about="">
        <dc:format>image/svg+xml</dc:format>
        <dc:type
           rdf:resource="http://purl.org/dc/dcmitype/StillImage" />
        <dc:title></dc:title>
      </cc:Work>
    </rdf:RDF>
  </metadata>
  <g
     inkscape:label="Layer 1"
     inkscape:groupmode="layer"
     id="layer1"
     transform="translate(320.26632,-406.72752)">
    <circle
       style="opacity:1;fill:none;fill-opacity:1;stroke:#58585a;stroke-width:10.87262249;stroke-linecap:butt;stroke-miterlimit:4;stroke-dasharray:none;stroke-dashoffset:0;stroke-opacity:1"
       id="path4373"
       cx="-104.69701"
       cy="560.98999"
       r="131.10965" />
    <g
       id="g4185"
       transform="matrix(0.43294753,0,0,0.43294753,149.28332,244.00826)">
      <path
         sodipodi:nodetypes="ccccccccc"
         inkscape:connector-curvature="0"
         id="path4462-7-2"
         d="m -749.216,586.07644 c 0,0 0.049,-6.3135 -7.8572,-6.0714 l -7.8571,0 c -3.52399,-0.4295 -7.19429,1.3007 -7.14289,6.0714 l 0.1786,206.27539 c 0.254,5.7946 1.5324,7.5597 6.96429,7.6786 l 9.8214,0 c 2.5507,-0.5635 5.4487,-1.3947 5.7143,-6.0714 z"
         style="fill:#58585a;fill-opacity:1;fill-rule:evenodd;stroke:none;stroke-width:1px;stroke-linecap:butt;stroke-linejoin:miter;stroke-opacity:1" />
      <g
         transform="translate(399.37936,-135.36044)"
         id="g4176">
        <path
           style="fill:#58585a;fill-opacity:1;fill-rule:evenodd;stroke:none;stroke-width:1px;stroke-linecap:butt;stroke-linejoin:miter;stroke-opacity:1"
           d="m -911.672,751.63864 c 0,0 0.049,-6.3135 -7.8572,-6.0714 l -7.8571,0 c -3.52399,-0.4295 -7.19429,1.3007 -7.14289,6.0714 l 0.53574,145.5183 c 0.254,5.7946 1.5324,7.5597 6.96429,7.6786 l 9.8214,0 c 2.5507,-0.5635 5.00676,-1.3947 5.27236,-6.0714 z"
           id="path4153"
           inkscape:connector-curvature="0"
           sodipodi:nodetypes="ccccccccc" />
        <path
           style="fill:#58585a;fill-opacity:1;fill-rule:evenodd;stroke:none;stroke-width:1px;stroke-linecap:butt;stroke-linejoin:miter;stroke-opacity:1"
           d="m -894.10152,911.97412 c 0,0 -6.3135,0.1404 -6.0714,8.0466 l 0,7.8571 c -0.4295,3.52399 1.3007,7.105 6.0714,7.0536 l 85.56216,-0.0893 c 5.7946,-0.254 7.5597,-1.5324 7.6786,-6.96429 l 0,-9.8214 c -0.5635,-2.5507 -1.3947,-5.4487 -6.0714,-5.7143 z"
           id="path4144"
           inkscape:connector-curvature="0" />
        <path
           style="fill:#58585a;fill-opacity:1;fill-rule:evenodd;stroke:none;stroke-width:1px;stroke-linecap:butt;stroke-linejoin:miter;stroke-opacity:1"
           d="m -895.12142,934.93197 c -5.49747,-0.32275 -38.83828,2.71884 -38.89088,-39.20654 l 22.11564,2.93908 c -0.1487,12.07998 6.72695,13.90338 17.79849,13.29274 z"
           id="path4149"
           inkscape:connector-curvature="0"
           sodipodi:nodetypes="ccccc" />
        <path
           inkscape:connector-curvature="0"
           style="fill:#58585a;fill-opacity:1;fill-rule:evenodd;stroke:none;stroke-width:1px;stroke-linecap:butt;stroke-linejoin:miter;stroke-opacity:1"
           d="m -893.80784,738.26011 c 0,0 -6.3135,-0.1404 -6.0714,-8.0466 l 0,-7.8571 c -0.4295,-3.52399 1.3007,-7.105 6.0714,-7.0536 l 85.56216,0.0893 c 5.7946,0.254 7.5597,1.5324 7.6786,6.96429 l 0,9.8214 c -0.5635,2.5507 -1.3947,5.4487 -6.0714,5.7143 z"
           id="path4144-3" />
        <path
           style="fill:#58585a;fill-opacity:1;fill-rule:evenodd;stroke:none;stroke-width:1px;stroke-linecap:butt;stroke-linejoin:miter;stroke-opacity:1"
           d="m -894.82774,715.30226 c -5.49747,0.32275 -39.66801,-3.14995 -39.72061,38.77543 l 22.88224,-2.50797 c -0.1487,-12.07998 6.79008,-13.90338 17.86162,-13.29274 z"
           id="path4149-1"
           inkscape:connector-curvature="0"
           sodipodi:nodetypes="ccccc" />
      </g>
      <path
         sodipodi:nodetypes="ccccccccccccccccc"
         inkscape:connector-curvature="0"
         id="path4183"
         d="m -728.09447,588.55605 c 10e-4,-5.73383 2.50627,-8.63913 10,-8.39286 l 5.35714,0 c 6.84524,-0.65479 9.40477,3.15476 9.46429,8.92857 l 0,145.53572 c 1.80106,9.60752 -4.16736,41.54808 46.60714,42.28643 l 27.85715,0 c 40.45876,-0.28504 45.92019,-23.45064 48.21428,-44.42929 l 0,-145 c -0.13268,-5.56465 4.34802,-7.57751 9.10714,-7.5 l 5.89286,0 c 5.64861,-0.32134 9.60672,1.08089 9.28572,7.14286 l 0,138.21428 c -1.91892,54.73551 -21.02221,75.61796 -72.5,75.50072 l -28.21429,0 c -15.65269,-0.59394 -71.97028,5.47005 -70.71428,-66.215 z"
         style="fill:#58585a;fill-opacity:1;fill-rule:evenodd;stroke:none;stroke-width:1px;stroke-linecap:butt;stroke-linejoin:miter;stroke-opacity:1" />
    </g>
    <path
       style="fill:none;fill-rule:evenodd;stroke:#58585a;stroke-width:4;stroke-linecap:butt;stroke-linejoin:miter;stroke-miterlimit:4;stroke-dasharray:none;stroke-opacity:1"
       d="m -226.58985,505.23833 c -2.96192,4.45194 -4.98968,10.03173 -6.33336,15.81504"
       id="path4200"
       inkscape:connector-curvature="0"
       sodipodi:nodetypes="cc" />
    <path
       style="opacity:1;fill:#d0bd2a;fill-opacity:1;stroke:none;stroke-width:5.43599987;stroke-linecap:round;stroke-miterlimit:4;stroke-dasharray:none;stroke-dashoffset:0;stroke-opacity:1"
       d="m 92.446359,628.03748 c -41.006641,0.32757 -117.070992,0.48741 -203.866309,0.14562 -85.92814,-0.33837 -153.96489,-22.19783 -180.83721,-46.6574 -26.87232,-24.45957 0.14394,-50.98993 66.22784,-68.11881 -55.64825,15.14811 -82.52649,38.28909 -56.09823,59.31131 26.42826,21.02222 93.84901,30.78684 171.85862,31.07338 77.995001,0.28649 164.479567,0.0424 202.523774,-0.0466 -3.159399,4.96908 -3.766395,20.00731 0.191515,24.29246 z"
       id="path4375-2-2"
       inkscape:connector-curvature="0"
       sodipodi:nodetypes="csscssccc" />
    <g
       id="g4353"
       transform="matrix(2.0670949,0,0,2.0670949,-108.35011,-706.97166)">
      <rect
         ry="1.7677382"
         rx="1.5151899"
         y="603.47565"
         x="82.453705"
         height="12.121826"
         width="40.406101"
         id="rect4305"
         style="opacity:1;fill:#4f4c4c;fill-opacity:1;stroke:none;stroke-width:4;stroke-linecap:round;stroke-miterlimit:4;stroke-dasharray:none;stroke-dashoffset:0;stroke-opacity:1" />
      <rect
         ry="1.7677382"
         rx="1.5151899"
         y="619.51184"
         x="82.327431"
         height="11.743042"
         width="29.925774"
         id="rect4305-3"
         style="opacity:1;fill:#4f4c4c;fill-opacity:1;stroke:none;stroke-width:4;stroke-linecap:round;stroke-miterlimit:4;stroke-dasharray:none;stroke-dashoffset:0;stroke-opacity:1" />
      <rect
         ry="1.7677382"
         rx="1.5151899"
         y="634.09589"
         x="95.648811"
         height="11.743042"
         width="35.102806"
         id="rect4305-3-5"
         style="opacity:1;fill:url(#linearGradient4351);fill-opacity:1;stroke:none;stroke-width:4;stroke-linecap:round;stroke-miterlimit:4;stroke-dasharray:none;stroke-dashoffset:0;stroke-opacity:1" />
    </g>
  </g>
</svg>
