<svg width="200.4981761432064" height="200.1940477977398" viewBox="0 0 200.4981761432064 200.1940477977398" xmlns="http://www.w3.org/2000/svg">
<line x1="100" x2="100.0799842536748" y1="100.1141247098496" y2="100.1122930506337" stroke="#000000" stroke-width="10"/>
<line x1="100.0505334847205" x2="100.0605334847205" y1="100.0345303017574" y2="100.1873434210787" stroke="#000000" stroke-width="10"/>
<line x1="100.0799842504298" x2="100.0899701328327" y1="100.1122930506769" y2="100.1117564514099" stroke="#000000" stroke-width="10"/>
<line x1="100.0705334847205" x2="100.0805334847205" y1="100.1940477977398" y2="100.083315841" stroke="#000000" stroke-width="10"/>
<line x1="100.0899701351646" x2="100.0999630344851" y1="100.1117564512619" y2="100.1113637823462" stroke="#000000" stroke-width="10"/>
<line x1="100.0999630359002" x2="100.1299046443135" y1="100.111363782233" y2="100.1094588007185" stroke="#000000" stroke-width="10"/>
<line x1="100.1205334847205" x2="100.1305334847205" y1="100" y2="100.1004653551635" stroke="#000000" stroke-width="10"/>
<line x1="100.1299046437723" x2="100.1398669983202" y1="100.1094588008154" y2="100.1085847639732" stroke="#000000" stroke-width="10"/>
<line x1="100.1398669989198" x2="100.3292190275417" y1="100.1085847638336" y2="100.0928393316226" stroke="#000000" stroke-width="10"/>
<line x1="100.3305334847205" x2="100.3405334847205" y1="100.0370891556036" y2="100.0159399227752" stroke="#000000" stroke-width="10"/>
<line x1="100.3292190337472" x2="100.3391967652875" y1="100.092839331199" y2="100.0921693590164" stroke="#000000" stroke-width="10"/>
<line x1="100.3391967662335" x2="100.3790889508985" y1="100.0921693589347" y2="100.0892054813574" stroke="#000000" stroke-width="10"/>
<line x1="100.3905334847205" x2="100.4005334847205" y1="100.0508433960557" y2="100.1483415214069" stroke="#000000" stroke-width="10"/>
<line x1="100.3790889506809" x2="100.3890529653593" y1="100.0892054812788" y2="100.0883542518979" stroke="#000000" stroke-width="10"/>
<line x1="100.3890529636418" x2="100.4981761432064" y1="100.0883542523297" y2="100.0743875840721" stroke="#000000" stroke-width="10"/>
</svg>
