<?xml version="1.0" encoding="UTF-8"?>
<svg xmlns="http://www.w3.org/2000/svg" viewBox="0 0 700 235" width="700" height="235">
  <defs>
    <filter id="shadow" x="-4%" y="-4%" width="110%" height="110%">
      <feGaussianBlur in="SourceAlpha" stdDeviation="2" result="blur"/>
      <feComponentTransfer in="blur"><feFuncA type="linear" slope="0.3"/></feComponentTransfer>
      <feMerge><feMergeNode/><feMergeNode in="SourceGraphic"/></feMerge>
    </filter>
    <marker id="arrowhead" markerWidth="10" markerHeight="7" refX="9" refY="3.5" orient="auto">
      <polygon points="0 0, 10 3.5, 0 7" fill="#555"/>
    </marker>
  </defs>
  <rect x="10" y="10" width="200" height="200" rx="8" ry="8" fill="#d9ead3" stroke="#888" stroke-width="1" filter="url(#shadow)"/>
  <text x="110" y="30" text-anchor="middle" font-family="sans-serif" font-size="13" font-weight="bold" fill="#333">Input: A collection</text>
  <rect x="22" y="40" width="176" height="70" rx="6" ry="6" fill="#fff" stroke="#aaa" stroke-width="0.7"/>
  <text x="110" y="58" text-anchor="middle" font-family="sans-serif" font-size="11" font-weight="bold" fill="#555">strain1.tsv</text>
  <text y="74" font-family="monospace" font-size="9" fill="#888"><tspan x="30">seq_name</tspan><tspan x="90">median</tspan><tspan x="130">mean</tspan><tspan x="162">...</tspan></text>
  <text y="86" font-family="monospace" font-size="9" fill="#888"><tspan x="30">mcr_1</tspan><tspan x="90">52</tspan><tspan x="130">52.74</tspan></text>
  <text y="98" font-family="monospace" font-size="9" fill="#888"><tspan x="30">mcr_2</tspan><tspan x="90">0</tspan><tspan x="130">1.61</tspan></text>
  <rect x="22" y="120" width="176" height="70" rx="6" ry="6" fill="#fff" stroke="#aaa" stroke-width="0.7"/>
  <text x="110" y="138" text-anchor="middle" font-family="sans-serif" font-size="11" font-weight="bold" fill="#555">strain2.tsv</text>
  <text y="154" font-family="monospace" font-size="9" fill="#888"><tspan x="30">seq_name</tspan><tspan x="90">median</tspan><tspan x="130">mean</tspan><tspan x="162">...</tspan></text>
  <text y="166" font-family="monospace" font-size="9" fill="#888"><tspan x="30">mcr_1</tspan><tspan x="90">85</tspan><tspan x="130">85.62</tspan></text>
  <text y="178" font-family="monospace" font-size="9" fill="#888"><tspan x="30">mcr_2</tspan><tspan x="90">0</tspan><tspan x="130">3.05</tspan></text>
  <line x1="225" y1="110" x2="355" y2="110" stroke="#555" stroke-width="2" marker-end="url(#arrowhead)"/>
  <text x="290" y="100" text-anchor="middle" font-family="sans-serif" font-size="12" font-weight="bold" fill="#555">Collapse</text>
  <text x="290" y="128" text-anchor="middle" font-family="sans-serif" font-size="9" fill="#888">header + names</text>
  <rect x="370" y="30" width="320" height="180" rx="8" ry="8" fill="#fff" stroke="#aaa" stroke-width="1" filter="url(#shadow)"/>
  <text x="530" y="50" text-anchor="middle" font-family="sans-serif" font-size="13" font-weight="bold" fill="#333">Output: A single dataset</text>
  <text y="72" font-family="monospace" font-size="9" font-weight="bold" fill="#333"><tspan x="388">Sample</tspan><tspan x="460">seq_name</tspan><tspan x="530">median</tspan><tspan x="580">mean</tspan></text>
  <line x1="385" y1="76" x2="675" y2="76" stroke="#ddd" stroke-width="0.5"/>
  <text y="92" font-family="monospace" font-size="9" fill="#555"><tspan x="388">strain1.tsv</tspan><tspan x="460">mcr_1</tspan><tspan x="530">52</tspan><tspan x="580">52.74</tspan></text>
  <text y="106" font-family="monospace" font-size="9" fill="#555"><tspan x="388">strain1.tsv</tspan><tspan x="460">mcr_2</tspan><tspan x="530">0</tspan><tspan x="580">1.61</tspan></text>
  <line x1="385" y1="114" x2="675" y2="114" stroke="#ddd" stroke-width="0.5" stroke-dasharray="4,3"/>
  <text y="130" font-family="monospace" font-size="9" fill="#555"><tspan x="388">strain2.tsv</tspan><tspan x="460">mcr_1</tspan><tspan x="530">85</tspan><tspan x="580">85.62</tspan></text>
  <text y="144" font-family="monospace" font-size="9" fill="#555"><tspan x="388">strain2.tsv</tspan><tspan x="460">mcr_2</tspan><tspan x="530">0</tspan><tspan x="580">3.05</tspan></text>
  <text x="350" y="228" text-anchor="middle" font-family="sans-serif" font-size="10" font-style="italic" fill="#666">single header kept, dataset name prepended as a column on every row</text>
</svg>
